<svg width="64" height="149" viewBox="0 0 64 149" fill="none" xmlns="http://www.w3.org/2000/svg">
<rect x="0.224609" y="64.5481" width="9.46332" height="9.46332" fill="#3F3F41"/>
<rect x="10.9497" y="64.5481" width="9.46332" height="9.46332" fill="#3F3F41"/>
<rect x="21.6748" y="64.5481" width="9.46332" height="9.46332" fill="#3F3F41"/>
<rect x="32.3999" y="64.5481" width="9.46332" height="9.46332" fill="#3F3F41"/>
<rect x="43.125" y="64.5481" width="9.46332" height="9.46332" fill="#3F3F41"/>
<rect x="53.8501" y="64.5481" width="9.46332" height="9.46332" fill="#3F3F41"/>
<rect x="0.224609" y="75.2733" width="9.46332" height="9.46332" fill="#3F3F41"/>
<rect x="10.9497" y="75.2733" width="9.46332" height="9.46332" fill="#3F3F41"/>
<rect x="21.6748" y="75.2733" width="9.46332" height="9.46332" fill="#3F3F41"/>
<rect x="32.3999" y="75.2733" width="9.46332" height="9.46332" fill="#3F3F41"/>
<rect x="43.125" y="75.2733" width="9.46332" height="9.46332" fill="#3F3F41"/>
<rect x="53.8501" y="75.2733" width="9.46332" height="9.46332" fill="#3F3F41"/>
<rect x="0.224609" y="85.9984" width="9.46332" height="9.46332" fill="#3F3F41"/>
<rect x="10.9497" y="85.9984" width="9.46332" height="9.46332" fill="#3F3F41"/>
<rect x="21.6748" y="85.9984" width="9.46332" height="9.46332" fill="#3F3F41"/>
<rect x="32.3999" y="85.9984" width="9.46332" height="9.46332" fill="#3F3F41"/>
<rect x="43.125" y="85.9984" width="9.46332" height="9.46332" fill="#3F3F41"/>
<rect x="53.8501" y="85.9984" width="9.46332" height="9.46332" fill="#3F3F41"/>
<rect x="0.224609" y="96.7235" width="9.46332" height="9.46332" fill="#3F3F41"/>
<rect x="10.9497" y="96.7235" width="9.46332" height="9.46332" fill="#3F3F41"/>
<rect x="21.6748" y="96.7235" width="9.46332" height="9.46332" fill="#3F3F41"/>
<rect x="32.3999" y="96.7235" width="9.46332" height="9.46332" fill="#3F3F41"/>
<rect x="43.125" y="96.7235" width="9.46332" height="9.46332" fill="#3F3F41"/>
<rect x="53.8501" y="96.7235" width="9.46332" height="9.46332" fill="#3F3F41"/>
<rect x="0.224609" y="107.449" width="9.46332" height="9.46332" fill="#3F3F41"/>
<rect x="10.9497" y="107.449" width="9.46332" height="9.46332" fill="#3F3F41"/>
<rect x="21.6748" y="107.449" width="9.46332" height="9.46332" fill="#3F3F41"/>
<rect x="32.3999" y="107.449" width="9.46332" height="9.46332" fill="#3F3F41"/>
<rect x="43.125" y="107.449" width="9.46332" height="9.46332" fill="#3F3F41"/>
<rect x="53.8501" y="107.449" width="9.46332" height="9.46332" fill="#3F3F41"/>
<rect x="0.224609" y="118.174" width="9.46332" height="9.46332" fill="#3F3F41"/>
<rect x="10.9497" y="118.174" width="9.46332" height="9.46332" fill="#3F3F41"/>
<rect x="21.6748" y="118.174" width="9.46332" height="9.46332" fill="#3F3F41"/>
<rect x="32.3999" y="118.174" width="9.46332" height="9.46332" fill="#3F3F41"/>
<rect x="43.125" y="118.174" width="9.46332" height="9.46332" fill="#3F3F41"/>
<rect x="53.8501" y="118.174" width="9.46332" height="9.46332" fill="#3F3F41"/>
<rect x="0.224609" y="128.899" width="9.46332" height="9.46332" fill="#3F3F41"/>
<rect x="10.9497" y="128.899" width="9.46332" height="9.46332" fill="#3F3F41"/>
<rect x="21.6748" y="128.899" width="9.46332" height="9.46332" fill="#3F3F41"/>
<rect x="32.3999" y="128.899" width="9.46332" height="9.46332" fill="#3F3F41"/>
<rect x="43.125" y="128.899" width="9.46332" height="9.46332" fill="#3F3F41"/>
<rect x="53.8501" y="128.899" width="9.46332" height="9.46332" fill="#3F3F41"/>
<rect x="0.224609" y="139.624" width="9.46332" height="9.46332" fill="#3F3F41"/>
<rect x="10.9497" y="139.624" width="9.46332" height="9.46332" fill="#3F3F41"/>
<rect x="21.6748" y="139.624" width="9.46332" height="9.46332" fill="#3F3F41"/>
<rect x="32.3999" y="139.624" width="9.46332" height="9.46332" fill="#3F3F41"/>
<rect x="43.125" y="139.624" width="9.46332" height="9.46332" fill="#3F3F41"/>
<rect x="53.8501" y="139.624" width="9.46332" height="9.46332" fill="#3F3F41"/>
<rect x="0.224609" y="43.4991" width="9.46332" height="9.46332" fill="#3F3F41"/>
<rect x="10.9497" y="43.4991" width="9.46332" height="9.46332" fill="#3F3F41"/>
<rect x="21.6748" y="43.4991" width="9.46332" height="9.46332" fill="#3F3F41"/>
<rect x="32.3999" y="43.4991" width="9.46332" height="9.46332" fill="#3F3F41"/>
<rect x="43.125" y="43.4991" width="9.46332" height="9.46332" fill="#3F3F41"/>
<rect x="53.8501" y="43.4991" width="9.46332" height="9.46332" fill="#3F3F41"/>
<rect x="0.224609" y="54.2242" width="9.46332" height="9.46332" fill="#3F3F41"/>
<rect x="10.9497" y="54.2242" width="9.46332" height="9.46332" fill="#3F3F41"/>
<rect x="21.6748" y="54.2242" width="9.46332" height="9.46332" fill="#3F3F41"/>
<rect x="32.3999" y="54.2242" width="9.46332" height="9.46332" fill="#3F3F41"/>
<rect x="43.125" y="54.2242" width="9.46332" height="9.46332" fill="#3F3F41"/>
<rect x="53.8501" y="54.2242" width="9.46332" height="9.46332" fill="#3F3F41"/>
<rect y="22" width="9.46332" height="9.46332" fill="#3F3F41"/>
<rect x="10.7251" y="22" width="9.46332" height="9.46332" fill="#3F3F41"/>
<rect x="21.4502" y="22" width="9.46332" height="9.46332" fill="#3F3F41"/>
<rect x="32.1753" y="22" width="9.46332" height="9.46332" fill="#3F3F41"/>
<rect x="42.9003" y="22" width="9.46332" height="9.46332" fill="#3F3F41"/>
<rect x="53.6255" y="22" width="9.46332" height="9.46332" fill="#3F3F41"/>
<rect y="32.7251" width="9.46332" height="9.46332" fill="#3F3F41"/>
<rect x="10.7251" y="32.7251" width="9.46332" height="9.46332" fill="#3F3F41"/>
<rect x="21.4502" y="32.7251" width="9.46332" height="9.46332" fill="#3F3F41"/>
<rect x="32.1753" y="32.7251" width="9.46332" height="9.46332" fill="#3F3F41"/>
<rect x="42.9003" y="32.7251" width="9.46332" height="9.46332" fill="#3F3F41"/>
<rect x="53.6255" y="32.7251" width="9.46332" height="9.46332" fill="#3F3F41"/>
<rect width="9.46332" height="9.46332" fill="#3F3F41"/>
<rect x="10.7251" y="-3.05176e-05" width="9.46332" height="9.46332" fill="#3F3F41"/>
<rect x="21.4502" y="-3.05176e-05" width="9.46332" height="9.46332" fill="#3F3F41"/>
<rect x="32.1753" y="-3.05176e-05" width="9.46332" height="9.46332" fill="#3F3F41"/>
<rect x="42.9003" y="-3.05176e-05" width="9.46332" height="9.46332" fill="#3F3F41"/>
<rect x="53.6255" y="-3.05176e-05" width="9.46332" height="9.46332" fill="#3F3F41"/>
<rect y="10.7251" width="9.46332" height="9.46332" fill="#3F3F41"/>
<rect x="10.7251" y="10.7251" width="9.46332" height="9.46332" fill="#3F3F41"/>
<rect x="21.4502" y="10.7251" width="9.46332" height="9.46332" fill="#3F3F41"/>
<rect x="32.1753" y="10.7251" width="9.46332" height="9.46332" fill="#3F3F41"/>
<rect x="42.9003" y="10.7251" width="9.46332" height="9.46332" fill="#3F3F41"/>
<rect x="53.6255" y="10.7251" width="9.46332" height="9.46332" fill="#3F3F41"/>
</svg>
