<svg width="32" height="32" viewBox="0 0 32 32" fill="none" xmlns="http://www.w3.org/2000/svg">
<path fill-rule="evenodd" clip-rule="evenodd" d="M5.54861 1.14681e-06H9.11806C9.82093 -2.2695e-05 10.4273 -4.33574e-05 10.9267 0.0407617C11.4538 0.0838297 11.9781 0.178918 12.4826 0.435976C13.2353 0.81947 13.8472 1.43139 14.2307 2.18404C14.4878 2.68855 14.5828 3.21284 14.6259 3.73996C14.6667 4.2394 14.6667 4.84576 14.6667 5.54864V9.11803C14.6667 9.82091 14.6667 10.4273 14.6259 10.9267C14.5828 11.4538 14.4878 11.9781 14.2307 12.4826C13.8472 13.2353 13.2353 13.8472 12.4826 14.2307C11.9781 14.4878 11.4538 14.5828 10.9267 14.6259C10.4273 14.6667 9.82091 14.6667 9.11803 14.6667H5.54864C4.84576 14.6667 4.2394 14.6667 3.73996 14.6259C3.21284 14.5828 2.68855 14.4878 2.18404 14.2307C1.43139 13.8472 0.81947 13.2353 0.435976 12.4826C0.178918 11.9781 0.0838297 11.4538 0.0407617 10.9267C-4.33574e-05 10.4273 -2.2695e-05 9.82093 1.14681e-06 9.11806V5.54861C-2.2695e-05 4.84574 -4.33574e-05 4.23939 0.0407617 3.73996C0.0838297 3.21284 0.178918 2.68855 0.435976 2.18404C0.81947 1.43139 1.43139 0.81947 2.18404 0.435976C2.68855 0.178918 3.21284 0.0838297 3.73996 0.0407617C4.23939 -4.33574e-05 4.84574 -2.2695e-05 5.54861 1.14681e-06ZM3.95712 2.69857C3.5949 2.72817 3.46061 2.7784 3.39468 2.81199C3.1438 2.93982 2.93982 3.1438 2.81199 3.39468C2.7784 3.46061 2.72817 3.5949 2.69857 3.95712C2.66771 4.3349 2.66667 4.83126 2.66667 5.6V9.06667C2.66667 9.83541 2.66771 10.3318 2.69857 10.7096C2.72817 11.0718 2.7784 11.2061 2.81199 11.272C2.93982 11.5229 3.1438 11.7268 3.39468 11.8547C3.46061 11.8883 3.5949 11.9385 3.95712 11.9681C4.3349 11.999 4.83126 12 5.6 12H9.06667C9.83541 12 10.3318 11.999 10.7096 11.9681C11.0718 11.9385 11.2061 11.8883 11.272 11.8547C11.5229 11.7268 11.7268 11.5229 11.8547 11.272C11.8883 11.2061 11.9385 11.0718 11.9681 10.7096C11.999 10.3318 12 9.83541 12 9.06667V5.6C12 4.83126 11.999 4.3349 11.9681 3.95712C11.9385 3.5949 11.8883 3.46061 11.8547 3.39468C11.7268 3.1438 11.5229 2.93982 11.272 2.81199C11.2061 2.7784 11.0718 2.72817 10.7096 2.69857C10.3318 2.66771 9.83541 2.66667 9.06667 2.66667H5.6C4.83126 2.66667 4.3349 2.66771 3.95712 2.69857Z" fill="white"/>
<path fill-rule="evenodd" clip-rule="evenodd" d="M5.54861 17.3333H9.11806C9.82093 17.3333 10.4273 17.3333 10.9267 17.3741C11.4538 17.4172 11.9781 17.5123 12.4826 17.7693C13.2353 18.1528 13.8472 18.7647 14.2307 19.5174C14.4878 20.0219 14.5828 20.5462 14.6259 21.0733C14.6667 21.5727 14.6667 22.1791 14.6667 22.882V26.4514C14.6667 27.1542 14.6667 27.7606 14.6259 28.26C14.5828 28.7872 14.4878 29.3115 14.2307 29.816C13.8472 30.5686 13.2353 31.1805 12.4826 31.564C11.9781 31.8211 11.4538 31.9162 10.9267 31.9592C10.4273 32 9.82091 32 9.11803 32H5.54864C4.84576 32 4.2394 32 3.73996 31.9592C3.21284 31.9162 2.68855 31.8211 2.18404 31.564C1.43139 31.1805 0.81947 30.5686 0.435976 29.816C0.178918 29.3115 0.0838297 28.7872 0.0407617 28.26C-4.33574e-05 27.7606 -2.2695e-05 27.1543 1.14681e-06 26.4514V22.8819C-2.2695e-05 22.1791 -4.33574e-05 21.5727 0.0407617 21.0733C0.0838297 20.5462 0.178918 20.0219 0.435976 19.5174C0.81947 18.7647 1.43139 18.1528 2.18404 17.7693C2.68855 17.5123 3.21284 17.4172 3.73996 17.3741C4.23939 17.3333 4.84574 17.3333 5.54861 17.3333ZM3.95712 20.0319C3.5949 20.0615 3.46061 20.1117 3.39468 20.1453C3.1438 20.2732 2.93982 20.4771 2.81199 20.728C2.7784 20.7939 2.72817 20.9282 2.69857 21.2904C2.66771 21.6682 2.66667 22.1646 2.66667 22.9333V26.4C2.66667 27.1687 2.66771 27.6651 2.69857 28.0429C2.72817 28.4051 2.7784 28.5394 2.81199 28.6053C2.93982 28.8562 3.1438 29.0602 3.39468 29.188C3.46061 29.2216 3.5949 29.2718 3.95712 29.3014C4.3349 29.3323 4.83126 29.3333 5.6 29.3333H9.06667C9.83541 29.3333 10.3318 29.3323 10.7096 29.3014C11.0718 29.2718 11.2061 29.2216 11.272 29.188C11.5229 29.0602 11.7268 28.8562 11.8547 28.6053C11.8883 28.5394 11.9385 28.4051 11.9681 28.0429C11.999 27.6651 12 27.1687 12 26.4V22.9333C12 22.1646 11.999 21.6682 11.9681 21.2904C11.9385 20.9282 11.8883 20.7939 11.8547 20.728C11.7268 20.4771 11.5229 20.2732 11.272 20.1453C11.2061 20.1117 11.0718 20.0615 10.7096 20.0319C10.3318 20.001 9.83541 20 9.06667 20H5.6C4.83126 20 4.3349 20.001 3.95712 20.0319Z" fill="white"/>
<path fill-rule="evenodd" clip-rule="evenodd" d="M22.8819 1.14681e-06H26.4514C27.1543 -2.2695e-05 27.7606 -4.33574e-05 28.26 0.0407617C28.7872 0.0838297 29.3115 0.178918 29.816 0.435976C30.5686 0.81947 31.1805 1.43139 31.564 2.18404C31.8211 2.68855 31.9162 3.21284 31.9592 3.73996C32 4.2394 32 4.84576 32 5.54864V9.11803C32 9.82091 32 10.4273 31.9592 10.9267C31.9162 11.4538 31.8211 11.9781 31.564 12.4826C31.1805 13.2353 30.5686 13.8472 29.816 14.2307C29.3115 14.4878 28.7872 14.5828 28.26 14.6259C27.7606 14.6667 27.1542 14.6667 26.4514 14.6667H22.882C22.1791 14.6667 21.5727 14.6667 21.0733 14.6259C20.5462 14.5828 20.0219 14.4878 19.5174 14.2307C18.7647 13.8472 18.1528 13.2353 17.7693 12.4826C17.5123 11.9781 17.4172 11.4538 17.3741 10.9267C17.3333 10.4273 17.3333 9.82093 17.3333 9.11806V5.54861C17.3333 4.84574 17.3333 4.23939 17.3741 3.73996C17.4172 3.21284 17.5123 2.68855 17.7693 2.18404C18.1528 1.43139 18.7647 0.81947 19.5174 0.435976C20.0219 0.178918 20.5462 0.0838297 21.0733 0.0407617C21.5727 -4.33574e-05 22.1791 -2.2695e-05 22.8819 1.14681e-06ZM21.2904 2.69857C20.9282 2.72817 20.7939 2.7784 20.728 2.81199C20.4771 2.93982 20.2732 3.1438 20.1453 3.39468C20.1117 3.46061 20.0615 3.5949 20.0319 3.95712C20.001 4.3349 20 4.83126 20 5.6V9.06667C20 9.83541 20.001 10.3318 20.0319 10.7096C20.0615 11.0718 20.1117 11.2061 20.1453 11.272C20.2732 11.5229 20.4771 11.7268 20.728 11.8547C20.7939 11.8883 20.9282 11.9385 21.2904 11.9681C21.6682 11.999 22.1646 12 22.9333 12H26.4C27.1687 12 27.6651 11.999 28.0429 11.9681C28.4051 11.9385 28.5394 11.8883 28.6053 11.8547C28.8562 11.7268 29.0602 11.5229 29.188 11.272C29.2216 11.2061 29.2718 11.0718 29.3014 10.7096C29.3323 10.3318 29.3333 9.83541 29.3333 9.06667V5.6C29.3333 4.83126 29.3323 4.3349 29.3014 3.95712C29.2718 3.5949 29.2216 3.46061 29.188 3.39468C29.0602 3.1438 28.8562 2.93982 28.6053 2.81199C28.5394 2.7784 28.4051 2.72817 28.0429 2.69857C27.6651 2.66771 27.1687 2.66667 26.4 2.66667H22.9333C22.1646 2.66667 21.6682 2.66771 21.2904 2.69857Z" fill="white"/>
<path fill-rule="evenodd" clip-rule="evenodd" d="M22.8819 17.3333H26.4514C27.1543 17.3333 27.7606 17.3333 28.26 17.3741C28.7872 17.4172 29.3115 17.5123 29.816 17.7693C30.5686 18.1528 31.1805 18.7647 31.564 19.5174C31.8211 20.0219 31.9162 20.5462 31.9592 21.0733C32 21.5727 32 22.1791 32 22.882V26.4514C32 27.1542 32 27.7606 31.9592 28.26C31.9162 28.7872 31.8211 29.3115 31.564 29.816C31.1805 30.5686 30.5686 31.1805 29.816 31.564C29.3115 31.8211 28.7872 31.9162 28.26 31.9592C27.7606 32 27.1542 32 26.4514 32H22.882C22.1791 32 21.5727 32 21.0733 31.9592C20.5462 31.9162 20.0219 31.8211 19.5174 31.564C18.7647 31.1805 18.1528 30.5686 17.7693 29.816C17.5123 29.3115 17.4172 28.7872 17.3741 28.26C17.3333 27.7606 17.3333 27.1543 17.3333 26.4514V22.8819C17.3333 22.1791 17.3333 21.5727 17.3741 21.0733C17.4172 20.5462 17.5123 20.0219 17.7693 19.5174C18.1528 18.7647 18.7647 18.1528 19.5174 17.7693C20.0219 17.5123 20.5462 17.4172 21.0733 17.3741C21.5727 17.3333 22.1791 17.3333 22.8819 17.3333ZM21.2904 20.0319C20.9282 20.0615 20.7939 20.1117 20.728 20.1453C20.4771 20.2732 20.2732 20.4771 20.1453 20.728C20.1117 20.7939 20.0615 20.9282 20.0319 21.2904C20.001 21.6682 20 22.1646 20 22.9333V26.4C20 27.1687 20.001 27.6651 20.0319 28.0429C20.0615 28.4051 20.1117 28.5394 20.1453 28.6053C20.2732 28.8562 20.4771 29.0602 20.728 29.188C20.7939 29.2216 20.9282 29.2718 21.2904 29.3014C21.6682 29.3323 22.1646 29.3333 22.9333 29.3333H26.4C27.1687 29.3333 27.6651 29.3323 28.0429 29.3014C28.4051 29.2718 28.5394 29.2216 28.6053 29.188C28.8562 29.0602 29.0602 28.8562 29.188 28.6053C29.2216 28.5394 29.2718 28.4051 29.3014 28.0429C29.3323 27.6651 29.3333 27.1687 29.3333 26.4V22.9333C29.3333 22.1646 29.3323 21.6682 29.3014 21.2904C29.2718 20.9282 29.2216 20.7939 29.188 20.728C29.0602 20.4771 28.8562 20.2732 28.6053 20.1453C28.5394 20.1117 28.4051 20.0615 28.0429 20.0319C27.6651 20.001 27.1687 20 26.4 20H22.9333C22.1646 20 21.6682 20.001 21.2904 20.0319Z" fill="white"/>
</svg>
