<svg width="28" height="28" viewBox="0 0 28 28" fill="none" xmlns="http://www.w3.org/2000/svg">
<path fill-rule="evenodd" clip-rule="evenodd" d="M5.16146 3H22.8385C23.3657 2.99998 23.8205 2.99997 24.195 3.03057C24.5904 3.06287 24.9836 3.13419 25.362 3.32698C25.9265 3.6146 26.3854 4.07354 26.673 4.63803C26.8658 5.01641 26.9371 5.40963 26.9694 5.80497C27 6.17954 27 6.6343 27 7.16144V20.8386C27 21.3657 27 21.8205 26.9694 22.195C26.9371 22.5904 26.8658 22.9836 26.673 23.362C26.3854 23.9265 25.9265 24.3854 25.362 24.673C24.9836 24.8658 24.5904 24.9371 24.195 24.9694C23.8205 25 23.3657 25 22.8386 25H5.16144C4.6343 25 4.17954 25 3.80497 24.9694C3.40963 24.9371 3.01641 24.8658 2.63803 24.673C2.07354 24.3854 1.6146 23.9265 1.32698 23.362C1.13419 22.9836 1.06287 22.5904 1.03057 22.195C0.999967 21.8205 0.999983 21.3657 1 20.8385V7.16146C0.999983 6.63431 0.999967 6.17955 1.03057 5.80497C1.06287 5.40963 1.13419 5.01641 1.32698 4.63803C1.6146 4.07354 2.07354 3.6146 2.63803 3.32698C3.01641 3.13419 3.40963 3.06287 3.80497 3.03057C4.17955 2.99997 4.63431 2.99998 5.16146 3ZM3.96784 5.02393C3.69617 5.04612 3.59546 5.0838 3.54601 5.109C3.35785 5.20487 3.20487 5.35785 3.109 5.54601C3.0838 5.59546 3.04612 5.69617 3.02393 5.96784C3.00078 6.25118 3 6.62345 3 7.2V20.8C3 21.3766 3.00078 21.7488 3.02393 22.0322C3.04612 22.3038 3.0838 22.4045 3.109 22.454C3.20487 22.6422 3.35785 22.7951 3.54601 22.891C3.59546 22.9162 3.69617 22.9539 3.96784 22.9761C4.25118 22.9992 4.62345 23 5.2 23H22.8C23.3766 23 23.7488 22.9992 24.0322 22.9761C24.3038 22.9539 24.4045 22.9162 24.454 22.891C24.6422 22.7951 24.7951 22.6422 24.891 22.454C24.9162 22.4045 24.9539 22.3038 24.9761 22.0322C24.9992 21.7488 25 21.3766 25 20.8V7.2C25 6.62345 24.9992 6.25117 24.9761 5.96784C24.9539 5.69617 24.9162 5.59546 24.891 5.54601C24.7951 5.35785 24.6422 5.20487 24.454 5.109C24.4045 5.0838 24.3038 5.04612 24.0322 5.02393C23.7488 5.00078 23.3766 5 22.8 5H5.2C4.62345 5 4.25117 5.00078 3.96784 5.02393Z" fill="#3F3F41"/>
<path fill-rule="evenodd" clip-rule="evenodd" d="M5.24743 7.3415C5.61111 6.92586 6.24287 6.88374 6.65851 7.24743L14 13.6712L21.3415 7.24743C21.7571 6.88374 22.3889 6.92586 22.7526 7.3415C23.1163 7.75713 23.0741 8.3889 22.6585 8.75258L14 16.3288L5.3415 8.75258C4.92586 8.3889 4.88374 7.75713 5.24743 7.3415Z" fill="#3F3F41"/>
</svg>
