<svg width="28" height="28" viewBox="0 0 28 28" fill="none" xmlns="http://www.w3.org/2000/svg">
<path fill-rule="evenodd" clip-rule="evenodd" d="M6.00004 7.99999V21.8C6.00004 22.3765 6.00082 22.7488 6.02397 23.0322C6.04616 23.3038 6.08384 23.4045 6.10903 23.454C6.20491 23.6421 6.35789 23.7951 6.54605 23.891C6.59549 23.9162 6.69621 23.9539 6.96788 23.9761C7.25121 23.9992 7.62349 24 8.20004 24H19.8C20.3766 24 20.7489 23.9992 21.0322 23.9761C21.3039 23.9539 21.4046 23.9162 21.454 23.891C21.6422 23.7951 21.7952 23.6421 21.891 23.454C21.9162 23.4045 21.9539 23.3038 21.9761 23.0322C21.9993 22.7488 22 22.3765 22 21.8V7.99999H24V21.8386C24.0001 22.3657 24.0001 22.8204 23.9695 23.195C23.9372 23.5904 23.8659 23.9836 23.6731 24.362C23.3854 24.9264 22.9265 25.3854 22.362 25.673C21.9836 25.8658 21.5904 25.9371 21.1951 25.9694C20.8205 26 20.3657 26 19.8386 26H8.16147C7.63433 26 7.17958 26 6.80501 25.9694C6.40967 25.9371 6.01645 25.8658 5.63807 25.673C5.07358 25.3854 4.61464 24.9264 4.32702 24.362C4.13423 23.9836 4.06291 23.5904 4.03061 23.195C4.00001 22.8204 4.00002 22.3657 4.00004 21.8385L4.00004 7.99999H6.00004Z" fill="#3F3F41"/>
<path fill-rule="evenodd" clip-rule="evenodd" d="M12.5681 17C12.5788 17 12.5894 17 12.6 17H15.4C15.4107 17 15.4213 17 15.4319 17C15.6843 17 15.9301 16.9999 16.1383 17.0169C16.3669 17.0356 16.6366 17.0797 16.908 17.218C17.2843 17.4097 17.5903 17.7157 17.7821 18.092C17.9204 18.3634 17.9644 18.6332 17.9831 18.8618C18.0001 19.0699 18.0001 19.3157 18 19.5681C18 19.5787 18 19.5893 18 19.6V26H10V19.6C10 19.5893 10 19.5787 10 19.5681C10 19.3157 9.99998 19.0699 10.017 18.8618C10.0357 18.6332 10.0797 18.3634 10.218 18.092C10.4098 17.7157 10.7157 17.4097 11.0921 17.218C11.3635 17.0797 11.6332 17.0356 11.8618 17.0169C12.07 16.9999 12.3158 17 12.5681 17ZM12.0115 19.0114C12.0111 19.0156 12.0107 19.02 12.0103 19.0246C12.0008 19.1412 12 19.3035 12 19.6V24H16V19.6C16 19.3035 15.9993 19.1412 15.9897 19.0246C15.9894 19.02 15.989 19.0156 15.9886 19.0114C15.9844 19.0111 15.9801 19.0107 15.9754 19.0103C15.8588 19.0008 15.6966 19 15.4 19H12.6C12.3035 19 12.1413 19.0008 12.0247 19.0103C12.02 19.0107 12.0156 19.0111 12.0115 19.0114Z" fill="#3F3F41"/>
<path fill-rule="evenodd" clip-rule="evenodd" d="M1.13626 10.5039C1.41454 10.9809 2.02686 11.142 2.50391 10.8638L14 4.15769L25.4962 10.8638C25.9732 11.142 26.5855 10.9809 26.8638 10.5039C27.1421 10.0268 26.981 9.41449 26.5039 9.13621L14 1.84229L1.49617 9.13621C1.01912 9.41449 0.857982 10.0268 1.13626 10.5039Z" fill="#3F3F41"/>
</svg>
